<?xml version="1.0" encoding="utf-8"?>
<!-- Generator: Adobe Illustrator 24.0.0, SVG Export Plug-In . SVG Version: 6.00 Build 0)  -->
<svg version="1.1" id="Layer_1" xmlns="http://www.w3.org/2000/svg" xmlns:xlink="http://www.w3.org/1999/xlink" x="0px" y="0px"
	 viewBox="0 0 1366 768" style="enable-background:new 0 0 1366 768;" xml:space="preserve">
<style type="text/css">
	.st0{fill:#AA8C46;}
	.st1{fill:#666666;}
	.st2{fill:#C7B25F;}
</style>
<g>
	<path class="st0" d="M773.67,317.54c-8.16-46.94-41.53-71.27-80.27-71.58c-38.74,0.31-72.11,24.64-80.27,71.58
		c-5.78,33.21,18.36,78.83,67.14,86.96c4.44,0.75,8.82,1.13,13.13,1.19c4.32-0.06,8.69-0.44,13.13-1.19
		C755.31,396.37,779.45,350.74,773.67,317.54z M705.59,396.56c-4.1,0.75-8.16,1.13-12.2,1.16c-4.03-0.03-8.1-0.41-12.2-1.16
		c-41.28-7.66-65.32-46.16-58.26-83.59c6.41-34.99,36.34-59.19,70.45-59.19c34.12,0,64.04,24.2,70.45,59.19
		C770.92,350.4,746.87,388.89,705.59,396.56z"/>
	<g>
		<path class="st1" d="M694.78,347.86c12.49,11.59,27.09,16.93,43.32,17.94c2.17,0.14,4.97-1.11,6.61-2.64
			c9.71-9.03,15.57-37.48,10.08-51.41C740.33,333.4,720.3,344.92,694.78,347.86z"/>
		<path class="st1" d="M712.42,334.71c14.92-5.59,26.74-13.37,35.29-25.7c4.13-5.96,4.16-11.27-0.28-17.58
			c-8.48-12.03-19.55-20.03-33.53-25.84C724.71,314.03,718.72,309.92,712.42,334.71z"/>
		<path class="st1" d="M674.78,339.56c-3.63,16.45-1.18,31.75,6.97,46.06c0.97,1.71,3.29,3.56,5.13,3.74
			c17.72,1.68,33.41-3.32,47.6-14.7c-11.65-4.09-22.75-7.34-33.3-11.88C690.17,358.02,682.86,348.53,674.78,339.56z"/>
		<path class="st1" d="M654.15,278.11c22.88,4.88,41.82,14.53,54.86,35.17c3.86-9.09,3.72-17.15,2.28-24.88
			c-1.32-7.05-4.12-13.87-6.79-20.58c-0.76-1.92-3.29-4.39-5.08-4.45c-15.56-0.52-30.66,1.23-43.27,11.74
			C655.57,275.61,655.26,276.43,654.15,278.11z"/>
		<path class="st1" d="M689.18,302.84c-11.54-8.5-24.37-14.67-39.11-16.63c-3.41-0.45-5.99,0.23-7.94,3.19
			c-9.18,13.95-13.45,29.07-11.73,46.01c9.28-7.43,17.33-15.71,27-21.08C666.93,309.04,678.11,306.69,689.18,302.84z"/>
		<path class="st1" d="M670.53,383.85c-8.42-22.52-9.81-44.6,1.87-67.81c-16.05,5.89-27.08,15.3-36.13,27.14
			c-1.18,1.54-1.14,4.84-0.42,6.88C641.77,366.81,653.8,377.55,670.53,383.85z"/>
	</g>
	<path d="M543.17,322.94c-0.63,0.18-1.26,0.37-1.87,0.57c0.54,0.23,1.09,0.48,1.64,0.73L543.17,322.94z"/>
	<path class="st2" d="M371.13,319.68c3.71-4.6,8.84-8.67,14.17-11.22c13.23-7.08,31.11-11.61,50.6-13.68
		c20.68-2.23,43.16-1.73,63.79,1.36c0.15,0.03,0.32,0.04,0.47,0.07c1.22,0.16,2.45,0.33,3.66,0.49c3.59,0.5,7.19,1.17,10.71,2.2
		c6.01,1.31,11.74,2.91,17.12,4.71c-1.2,0.44-2.41,0.89-3.59,1.33c-4.87,1.78-9.7,3.59-14.56,5.41c-1.24,0.46-2.5,0.92-3.74,1.39
		c-3.68-1.09-7.29-2.05-10.83-2.88c-6.45-1.12-12.93-2.65-19.45-3.65c-3.7-0.5-7.28-0.87-10.76-1.11
		c-20.21-1.31-40.26,0.93-59.69,6.9c-0.09,0.03-0.18,0.07-0.27,0.09c-10.98,3.79-17.21,7.69-18.08,8.25
		c-0.06,0.04-0.1,0.07-0.1,0.07c-13.25,9.7-7.6,21.55,13.68,29.81C391.67,347.95,356.85,337.38,371.13,319.68z"/>
	<path class="st2" d="M389.37,128.66c67.9-8.34,125.41,4.95,128.45,29.67c1.35,11-8.32,22.42-25.45,32.43
		c10.14-7.25,15.57-15.05,14.65-22.58c-2.59-21.09-54.02-32.13-114.87-24.66c-60.85,7.47-108.08,30.62-105.49,51.71
		c1.12,9.15,11.45,16.41,27.75,21.09c-24.7-5.25-40.91-14.99-42.48-27.8C268.88,163.8,321.47,137,389.37,128.66z"/>
	<path class="st0" d="M1018.67,179.51c-14.2-0.78-28.42-1.44-42.62-1.66c-4.41-0.06-8.35,2.66-9.16,7.32
		c-0.91,5.13-4.07,6.57-8.51,7.69c-36.09,8.97-72.11,18.23-108.2,27.21c-12.98,3.22-26.17,5.66-39.15,8.88
		c-10.57,2.6-21.2,5.25-31.4,8.91c-11.44,4.1-20.48,1.69-31.27-4.07c-18.07-9.69-36.49-14.04-54.97-13.79
		c-18.48-0.25-36.9,4.1-54.97,13.79c-10.79,5.75-19.83,8.16-31.27,4.07c-10.19-3.66-20.83-6.32-31.4-8.91
		c-12.98-3.22-26.17-5.66-39.15-8.88c-36.09-8.97-72.11-18.23-108.2-27.21c-4.44-1.13-7.6-2.56-8.51-7.69
		c-0.81-4.66-4.75-7.38-9.16-7.32c-14.2,0.22-28.42,0.88-42.62,1.66c-5.38,0.31-7.57,3.56-7.13,9.16
		c0.63,8.35,0.88,16.73,0.94,25.11c0.06,5.1,2.6,8.13,7.16,8.91c15.85,2.66,31.77,4,46.69-3.82c3.94-2.03,7.25-2.1,11.16-0.72
		c38.99,13.76,78.05,27.46,117.08,41.21c15.01,5.28,29.99,10.66,44.94,16.17c3.16,1.19,7.66,1.53,7,6.79
		c-0.59,4.57-1.78,8.32-7.04,10.23c-33.12,12.04-66.11,24.36-99.1,36.71c-3.56,1.34-6.16,0.56-9.35-1.19
		c-12.1-6.79-24.89-4.66-37.49-1.72c-3.53,0.81-5.32,3.66-4.97,7.69c0.47,5.57,0.44,11.16,0.84,16.76c0.47,6.6,2.41,9.79,8.72,10.04
		c9.85,1.22,19.33,0.28,28.33-1.25c2.22-0.38,5.1-1.88,6.29-3.75c3.41-5.22,8.57-6.85,13.95-8.51
		c17.64-5.47,35.18-11.13,52.85-16.45c14.38-4.35,28.89-8.32,43.75-12.57c6.69,12.41,16.39,38.21,17.29,37.99
		c-4.79-26.56-7.3-48.59,7-72.95c15.85-27.02,39.49-42,70.89-44.19c1.84-0.13,3.66-0.19,5.47-0.19c1.81,0,3.63,0.06,5.47,0.19
		c31.4,2.19,55.04,17.17,70.89,44.19c14.33,24.42,11.72,46.2,7,72.95c0.91,0.22,10.6-25.58,17.29-37.99
		c14.85,4.25,29.36,8.22,43.75,12.57c17.67,5.32,35.21,10.98,52.85,16.45c5.38,1.66,10.54,3.28,13.95,8.51
		c1.19,1.88,4.07,3.38,6.29,3.75c9.01,1.53,18.48,2.47,28.33,1.25c6.32-0.25,8.26-3.44,8.72-10.04c0.41-5.6,0.38-11.19,0.84-16.76
		c0.34-4.03-1.44-6.88-4.97-7.69c-12.6-2.94-25.39-5.07-37.49,1.72c-3.19,1.75-5.78,2.53-9.35,1.19
		c-32.99-12.35-65.98-24.67-99.1-36.71c-5.25-1.91-6.44-5.66-7.04-10.23c-0.66-5.25,3.85-5.6,7-6.79
		c14.95-5.5,29.93-10.88,44.94-16.17c39.03-13.76,78.08-27.46,117.08-41.21c3.91-1.38,7.22-1.31,11.16,0.72
		c14.92,7.82,30.83,6.47,46.69,3.82c4.57-0.78,7.1-3.82,7.16-8.91c0.06-8.38,0.31-16.76,0.94-25.11
		C1026.24,183.07,1024.05,179.82,1018.67,179.51z M366.74,215.56c7.79-7.79,38.53-8.63,46.03-1.28
		C402.86,221.82,375.59,222.6,366.74,215.56z M446.77,355.9c7.04-5.16,21.86-5.75,28.33-1.63
		C469.09,358.5,456.46,359.41,446.77,355.9z M940.03,355.9c-9.69,3.5-22.33,2.6-28.33-1.63
		C918.17,350.15,932.99,350.74,940.03,355.9z M974.02,214.28c7.5-7.35,38.24-6.5,46.03,1.28
		C1011.2,222.6,983.93,221.82,974.02,214.28z"/>
	<path class="st2" d="M1015.66,319.68c-3.71-4.6-8.84-8.67-14.17-11.22c-13.23-7.08-31.11-11.61-50.6-13.68
		c-20.68-2.23-43.16-1.73-63.79,1.36c-0.15,0.03-0.32,0.04-0.47,0.07c-1.22,0.16-2.45,0.33-3.66,0.49c-3.59,0.5-7.19,1.17-10.71,2.2
		c-6.01,1.31-11.74,2.91-17.12,4.71c1.2,0.44,2.41,0.89,3.59,1.33c4.87,1.78,9.7,3.59,14.56,5.41c1.24,0.46,2.5,0.92,3.74,1.39
		c3.68-1.09,7.29-2.05,10.83-2.88c6.45-1.12,12.93-2.65,19.45-3.65c3.7-0.5,7.28-0.87,10.76-1.11c20.21-1.31,40.26,0.93,59.69,6.9
		c0.09,0.03,0.18,0.07,0.27,0.09c10.98,3.79,17.21,7.69,18.08,8.25c0.06,0.04,0.1,0.07,0.1,0.07c13.25,9.7,7.6,21.55-13.68,29.81
		C995.12,347.95,1029.94,337.38,1015.66,319.68z"/>
	<path class="st2" d="M997.42,128.66c-67.9-8.34-125.41,4.95-128.45,29.67c-1.35,11,8.32,22.42,25.45,32.43
		c-10.14-7.25-15.57-15.05-14.65-22.58c2.59-21.09,54.02-32.13,114.87-24.66c60.85,7.47,108.08,30.62,105.49,51.71
		c-1.12,9.15-11.45,16.41-27.75,21.09c24.7-5.25,40.91-14.99,42.48-27.8C1117.91,163.8,1065.32,137,997.42,128.66z"/>
	<g>
		<path class="st0" d="M298.15,504.16c0.13,2.39,0.27,4.52,0.27,6.11c0,26.19-18.48,46.26-44.93,46.26
			c-26.32,0-46.79-20.34-46.79-46.39c0-25.92,20.34-46.39,46.39-46.39c19.01,0,36.02,9.17,42.4,26.32l-12.89,4.52
			c-6.25-12.76-17.55-17.41-29.51-17.41c-17.95,0-31.9,14.36-31.9,32.97c0,18.74,14.22,32.97,32.7,32.97
			c16.35,0,27.92-10.5,30.57-25.92H249.1v-13.03H298.15z"/>
		<path class="st0" d="M404.09,510.27c0,25.79-20.47,46.26-46.52,46.26c-26.05,0-46.39-20.47-46.39-46.26
			c0-25.92,20.34-46.53,46.39-46.53C383.62,463.75,404.09,484.35,404.09,510.27z M389.74,510.27c0-18.88-14.09-33.1-32.17-33.1
			c-17.95,0-32.04,14.22-32.04,33.1c0,18.74,14.09,32.83,32.04,32.83C375.65,543.11,389.74,529.01,389.74,510.27z"/>
		<path class="st0" d="M483.71,554.67h-62.88v-89.06h14.22v76.17h48.65V554.67z"/>
		<path class="st0" d="M530.23,465.61c30.31,0,49.18,18.61,49.18,44.53c0,25.92-18.88,44.53-49.18,44.53h-31.11v-89.06H530.23z
			 M530.23,541.78c21.67,0,34.83-13.16,34.83-31.64c0-18.48-13.16-31.64-34.83-31.64h-16.88v63.27H530.23z"/>
		<path class="st0" d="M662.49,554.67h-66.33v-89.06h66.2v12.89h-51.98v25.12h47.99v12.76h-47.99v25.39h52.11V554.67z"/>
		<path class="st0" d="M760.86,554.67h-12.1l-53.84-63.94v63.94H680.7v-89.06h12.1l53.7,65v-65h14.36V554.67z"/>
		<path class="st2" d="M850.84,489.4l-21.53,4.39c-1.59-8.37-8.51-12.5-15.55-12.5c-7.31,0-11.96,3.99-11.96,9.04
			c0,3.59,1.6,6.25,7.18,7.44l18.48,4.12c15.42,3.45,24.46,11.83,24.46,25.92c0,19.01-16.88,28.85-36.69,28.85
			c-20.07,0-36.56-9.57-38.95-26.98l22.6-4.39c2.26,9.17,8.64,13.16,17.55,13.16c8.24,0,13.16-3.72,13.16-9.17
			c0-3.99-1.86-6.51-8.24-7.84l-18.61-3.99c-12.76-2.93-23.93-9.57-23.93-25.79c0-17.28,14.36-28.05,35.23-28.05
			C833.43,463.61,847.52,473.18,850.84,489.4z"/>
		<path class="st2" d="M908.4,484.75v69.92h-21.8v-69.92h-28.85v-19.14h79.49v19.14H908.4z"/>
		<path class="st2" d="M1004.1,554.67l-6.25-16.22h-37.49l-6.25,16.22H930.6l37.22-89.06h22.46l37.22,89.06H1004.1z M979.11,490.33
			l-11.3,29.24h22.73L979.11,490.33z"/>
		<path class="st2" d="M1071.5,484.75v69.92h-21.8v-69.92h-28.85v-19.14h79.49v19.14H1071.5z"/>
		<path class="st2" d="M1180.09,554.67h-69.39v-89.06h68.99v18.88h-47.06v16.75h43.2v17.81h-43.2v16.75h47.46V554.67z"/>
		<g>
			<path class="st1" d="M224.36,595.76c18.69,0,29.51,11.53,29.51,26.65c0,15.03-10.82,26.65-29.51,26.65H206.7v-53.29H224.36z
				 M224.28,643.32c14.95,0,23.23-9.15,23.23-20.92c0-11.85-8.27-21-23.23-21h-11.3v41.92H224.28z"/>
			<path class="st1" d="M323.95,649.05l-20.36-22.83h-9.78v22.83h-6.28v-53.29h24.66c10.42,0,17.42,6.04,17.42,15.19
				c0,9.15-7,15.27-17.42,15.27h-0.96l20.6,22.83H323.95z M312.18,620.49c6.68,0,11.14-3.82,11.14-9.54c0-5.73-4.45-9.55-11.14-9.55
				h-18.38v19.09H312.18z"/>
			<path class="st1" d="M414.8,622.4c0,15.51-12.09,27.68-27.52,27.68c-15.51,0-27.6-12.17-27.6-27.68
				c0-15.43,12.09-27.68,27.6-27.68C402.71,594.72,414.8,606.97,414.8,622.4z M408.44,622.4c0-12.25-9.31-21.8-21.16-21.8
				c-11.93,0-21.24,9.55-21.24,21.8c0,12.33,9.31,21.72,21.24,21.72C399.13,644.12,408.44,634.73,408.44,622.4z"/>
			<path class="st1" d="M494.99,649.05h-5.41l-34.84-42.32v42.32h-6.28v-53.29h5.41l34.84,42.79v-42.79h6.28V649.05z"/>
			<path class="st1" d="M570.09,649.05h-38.9v-53.29h38.82v5.65h-32.53v18.06h30.23v5.65h-30.23v18.22h32.61V649.05z"/>
			<path class="st1" d="M684.17,609.36l-6.28,1.43c-1.19-6.44-6.52-10.58-13.84-10.58c-7.16,0-12.09,3.9-12.09,9.62
				c0,4.77,3.02,6.92,8.03,7.96l11.61,2.62c7.4,1.59,13.44,5.33,13.44,13.84c0,9.7-7.88,15.83-19.81,15.83
				c-11.29,0-20.36-5.81-21.64-15.91l6.6-1.35c1.19,7.48,7.32,11.69,15.59,11.69c8.11,0,12.97-4.06,12.97-9.94
				c0-5.01-2.7-7-8.67-8.35l-12.01-2.63c-6.84-1.51-12.81-5.09-12.81-13.6c0-9.15,7.56-15.27,18.93-15.27
				C674.86,594.72,682.34,600.61,684.17,609.36z"/>
			<path class="st1" d="M757.51,649.05h-38.9v-53.29h38.82v5.65H724.9v18.06h30.23v5.65H724.9v18.22h32.61V649.05z"/>
			<path class="st1" d="M827.99,649.05l-20.36-22.83h-9.78v22.83h-6.28v-53.29h24.66c10.42,0,17.42,6.04,17.42,15.19
				c0,9.15-7,15.27-17.42,15.27h-0.96l20.6,22.83H827.99z M816.22,620.49c6.68,0,11.14-3.82,11.14-9.54c0-5.73-4.46-9.55-11.14-9.55
				h-18.38v19.09H816.22z"/>
			<path class="st1" d="M888.06,649.05h-6.05l-23.23-53.29h6.84l19.41,44.7l19.41-44.7h6.84L888.06,649.05z"/>
			<path class="st1" d="M942,649.05v-53.29h6.29v53.29H942z"/>
			<path class="st1" d="M1028.86,630.59l6.05,1.43c-3.26,11.14-13.12,18.06-25.38,18.06c-15.51,0-27.68-12.17-27.68-27.68
				c0-15.51,12.17-27.68,27.68-27.68c12.25,0,22.11,6.92,25.38,17.66l-6.05,1.75c-2.71-8.59-10.1-13.52-19.33-13.52
				c-11.93,0-21.32,9.47-21.32,21.8c0,12.25,9.39,21.79,21.32,21.79C1018.76,644.2,1026.08,639.35,1028.86,630.59z"/>
			<path class="st1" d="M1107.46,649.05h-38.9v-53.29h38.82v5.65h-32.53v18.06h30.23v5.65h-30.23v18.22h32.61V649.05z"/>
			<path class="st1" d="M1179.22,609.36l-6.29,1.43c-1.19-6.44-6.52-10.58-13.84-10.58c-7.16,0-12.09,3.9-12.09,9.62
				c0,4.77,3.02,6.92,8.03,7.96l11.61,2.62c7.4,1.59,13.44,5.33,13.44,13.84c0,9.7-7.88,15.83-19.81,15.83
				c-11.29,0-20.36-5.81-21.64-15.91l6.6-1.35c1.19,7.48,7.32,11.69,15.59,11.69c8.11,0,12.96-4.06,12.96-9.94
				c0-5.01-2.7-7-8.67-8.35l-12.01-2.63c-6.84-1.51-12.81-5.09-12.81-13.6c0-9.15,7.56-15.27,18.93-15.27
				C1169.91,594.72,1177.39,600.61,1179.22,609.36z"/>
		</g>
	</g>
</g>
</svg>
